<?xml version="1.0"?>
<svg width="512" height="512" xmlns="http://www.w3.org/2000/svg" xmlns:svg="http://www.w3.org/2000/svg" preserveAspectRatio="xMidYMid meet" version="1.0">
 <g class="layer">
  <title>Layer 1</title>
  <g fill="#000000" id="svg_1" transform="matrix(0.1 0 0 -0.1 0 0)">
   <path d="m2217,-205c-577,-70 -1136,-331 -1548,-723c-113,-107 -142,-151 -160,-239c-12,-60 -10,-91 16,-193c5,-20 -5,-41 -47,-100c-242,-340 -389,-712 -454,-1150c-17,-112 -19,-192 -19,-765c0,-719 -2,-695 76,-863c110,-239 308,-405 560,-470l74,-19l3,840c1,462 0,842 -2,844c-2,2 -35,-3 -72,-12c-90,-20 -234,-92 -312,-155l-62,-50l0,250c0,171 5,285 16,362c51,368 168,682 367,979l79,120l68,-7c80,-8 156,7 215,41c22,13 81,61 130,106c327,298 679,467 1115,535c158,24 459,22 620,-5c444,-74 775,-236 1100,-536c121,-112 188,-146 289,-146c39,0 79,2 89,5c22,7 32,-3 99,-104c206,-307 326,-627 378,-1010c12,-85 15,-177 13,-352l-3,-236l-65,49c-100,76 -287,159 -357,159l-23,0l0,-839l0,-839l63,14c256,58 487,256 590,505c64,152 67,191 67,760c0,333 -3,509 -10,509c-6,0 -10,38 -10,93c0,207 -64,545 -145,763c-42,113 -156,355 -211,447c-21,34 -68,106 -106,160l-70,98l16,46c19,55 21,156 4,204c-22,66 -81,139 -186,233c-438,390 -955,624 -1527,691c-158,18 -505,18 -658,0z" fill="#0d6efd" id="svg_2"/>
   <path d="m1144,-2849c-49,-23 -107,-88 -122,-140c-17,-55 -17,-1727 0,-1782c6,-22 27,-58 47,-80c106,-124 295,-101 374,46l22,40l0,885l0,885l-22,40c-59,111 -188,156 -299,106z" fill="#0d6efd" id="svg_3"/>
   <path d="m3771,-2847c-45,-22 -93,-71 -114,-116c-16,-33 -17,-105 -15,-930l3,-893l28,-42c44,-67 97,-96 181,-100c90,-4 144,22 196,93l35,49l3,891c3,992 6,943 -65,1006c-20,17 -51,38 -69,45c-46,19 -141,17 -183,-3z" fill="#0d6efd" id="svg_4"/>
  </g>
 </g>
</svg>